<svg width="1637" height="369" viewBox="0 0 1637 369" fill="none" xmlns="http://www.w3.org/2000/svg">
<g clip-path="url(#clip0_813_79)">
<path d="M0.838754 369C0.0536308 368.43 0.00744714 368.322 -0.000250146 367.421C-0.023342 364.356 1.63927 357.724 2.23966 354.22C20.69 245.99 40.8107 137.999 59.6614 29.8379C74.9867 21.0653 92.2517 13.9947 109.617 10.3131C156.409 0.392807 201.638 13.1244 245.805 27.612C254.087 28.9907 261.192 21.0498 264.378 14.2181C267.011 8.58014 266.641 0.338892 274.862 0C309.138 10.6289 342.968 23.9381 378.875 28.467C420.648 33.7352 463.161 27.6582 500 7.00121L488.477 25.8868C455.386 77.3907 416.554 124.72 379.306 173.166C378.906 175.076 390.306 200.655 392.107 204.699C401.844 226.511 413.074 248.832 425.213 269.389C430.655 278.608 436.797 287.404 442.278 296.585C427.099 303.039 411.766 309.286 395.486 312.544C349.379 321.763 306.89 311.927 263.116 298.341C253.363 295.314 239.016 288.644 229.879 286.934C220.388 285.155 212.945 295.222 209.689 303.008C206.856 309.763 207.542 319.098 197.92 318.975C174.636 311.951 151.628 303.555 127.628 299.134C106.692 295.283 83.5768 292.934 62.8019 297.91L49.347 369H0.838754ZM381.469 82.4895C357.385 80.1327 333.9 74.2868 310.831 67.2856C297.885 63.3575 283.991 57.1034 271.26 53.7453C260.568 50.9263 256.104 57.6887 252.024 66.5616C248.976 73.2008 249.392 83.5062 241.025 84.0684C232.25 84.6538 197.905 70.2124 186.551 66.8774C160.38 59.1753 133.94 54.3537 106.746 60.215L95.9079 124.843C141.453 113.829 185.851 132.869 228.686 145.647C236.245 144.815 241.032 138.014 243.827 131.529C246.621 125.044 245.82 117.126 254.826 117.103C274.285 123.141 293.305 130.566 312.964 136.011C317.128 137.167 332.453 141.811 335.509 141.033L381.469 82.4895ZM327.411 194.332C300.171 188.909 274.292 178.643 247.929 170.278C238.931 168.576 233.743 178.427 230.71 185.413C228.116 191.397 227.631 201.849 219.449 201.864C215.785 201.872 206.364 198.021 202.3 196.681C164.483 184.157 127.513 167.867 86.3863 177.187L75.1175 241.908C104.359 235.222 133.155 240.483 161.489 248.293C171.156 250.958 199.798 262.287 207.134 261.987C214.423 261.687 220.904 253.9 223.56 247.576C226.238 241.191 225.168 232.681 234.821 233.42C275.255 246.829 316.035 261.717 359.139 263.473L327.404 194.339L327.411 194.332Z" fill="#08A045"/>
</g>
<path d="M630.75 269.5C602.75 269.5 574.75 258.5 554 239L573.5 215C593.5 233 611.75 241 633 241C656 241 670.75 231.5 670.75 217C670.75 204 662 197.75 640 194L607 188.25C576.25 183 560.75 167.25 560.75 141.75C560.75 109.75 586.75 89.5 628.25 89.5C653.75 89.5 680.5 98.5 700 114L682 139C663.25 124.5 645.25 117.75 626.25 117.75C605.75 117.75 592.5 126.25 592.5 139.25C592.5 151 600 156.75 619 159.75L650.75 165C686.5 170.75 703.75 187 703.75 214C703.75 247.75 675 269.5 630.75 269.5ZM779.332 269C751.582 269 737.082 256.25 737.082 231.75V164H710.332V137.5H737.082V104.5L768.582 97.25V137.5H806.082V164H768.582V225C768.582 237.5 773.582 242.25 786.832 242.25C793.582 242.25 798.582 241.5 805.082 239.25V265.25C798.082 267.5 786.832 269 779.332 269ZM864.592 269.25C836.592 269.25 817.342 253 817.342 229.5C817.342 205 836.842 190.5 869.842 190.5C881.342 190.5 892.592 192.25 902.592 196V185.5C902.592 169.5 892.842 161.5 874.092 161.5C863.092 161.5 850.842 164.75 834.592 172.25L823.092 148.75C843.092 139.5 861.092 135 879.342 135C914.092 135 933.842 152.25 933.842 182.5V267H902.592V257.25C891.592 265.5 879.342 269.25 864.592 269.25ZM847.342 229C847.342 239.5 857.342 246.25 872.592 246.25C884.342 246.25 894.342 243.25 902.592 236.75V217.25C893.842 213.25 884.592 211.5 873.842 211.5C857.342 211.5 847.342 218 847.342 229ZM960.549 267V137.5H992.299V148.75C1002.05 139.75 1014.8 135 1029.3 135C1059.3 135 1080.3 156.25 1080.3 186.5V267H1048.8V191.25C1048.8 173.5 1037.55 162.5 1020.3 162.5C1008.3 162.5 998.549 167.5 992.299 176.5V267H960.549ZM1166.78 268.75C1130.03 268.75 1101.28 239.5 1101.28 202.25C1101.28 164.75 1130.28 135.75 1167.78 135.75C1180.78 135.75 1193.53 139.5 1204.03 146.75V92L1235.78 86.5V267H1204.28V255.75C1194.03 264.25 1181.03 268.75 1166.78 268.75ZM1171.78 241.75C1184.78 241.75 1196.03 237 1204.03 228.25V175.75C1196.28 167.5 1184.53 162.75 1171.78 162.75C1149.53 162.75 1132.28 179.75 1132.28 202C1132.28 224.5 1149.53 241.75 1171.78 241.75ZM1304.53 269.25C1276.53 269.25 1257.28 253 1257.28 229.5C1257.28 205 1276.78 190.5 1309.78 190.5C1321.28 190.5 1332.53 192.25 1342.53 196V185.5C1342.53 169.5 1332.78 161.5 1314.03 161.5C1303.03 161.5 1290.78 164.75 1274.53 172.25L1263.03 148.75C1283.03 139.5 1301.03 135 1319.28 135C1354.03 135 1373.78 152.25 1373.78 182.5V267H1342.53V257.25C1331.53 265.5 1319.28 269.25 1304.53 269.25ZM1287.28 229C1287.28 239.5 1297.28 246.25 1312.53 246.25C1324.28 246.25 1334.28 243.25 1342.53 236.75V217.25C1333.78 213.25 1324.53 211.5 1313.78 211.5C1297.28 211.5 1287.28 218 1287.28 229ZM1400.49 267V137.5H1432.24V152.5C1440.49 141 1452.49 134.75 1466.99 134.75C1473.74 134.75 1477.24 135.5 1480.99 137.25V165.25C1475.99 163.25 1469.99 162 1464.24 162C1450.24 162 1438.99 169.25 1432.24 182.25V267H1400.49ZM1553.99 268.75C1517.24 268.75 1488.49 239.5 1488.49 202.25C1488.49 164.75 1517.49 135.75 1554.99 135.75C1567.99 135.75 1580.74 139.5 1591.24 146.75V92L1622.99 86.5V267H1591.49V255.75C1581.24 264.25 1568.24 268.75 1553.99 268.75ZM1558.99 241.75C1571.99 241.75 1583.24 237 1591.24 228.25V175.75C1583.49 167.5 1571.74 162.75 1558.99 162.75C1536.74 162.75 1519.49 179.75 1519.49 202C1519.49 224.5 1536.74 241.75 1558.99 241.75Z" fill="white"/>
<defs>
<clipPath id="clip0_813_79">
<rect width="500" height="369" fill="white"/>
</clipPath>
</defs>
</svg>
